<?xml version="1.0" encoding="UTF-8" standalone="no"?>
<!-- Created with Inkscape (http://www.inkscape.org/) -->

<svg
   xmlns:dc="http://purl.org/dc/elements/1.1/"
   xmlns:cc="http://creativecommons.org/ns#"
   xmlns:rdf="http://www.w3.org/1999/02/22-rdf-syntax-ns#"
   xmlns:svg="http://www.w3.org/2000/svg"
   xmlns="http://www.w3.org/2000/svg"
   xmlns:sodipodi="http://sodipodi.sourceforge.net/DTD/sodipodi-0.dtd"
   xmlns:inkscape="http://www.inkscape.org/namespaces/inkscape"
   width="2560.0002"
   height="1440"
   viewBox="0 0 677.33338 381.00001"
   version="1.1"
   id="svg4798"
   inkscape:version="0.92.2 (5c3e80d, 2017-08-06)"
   sodipodi:docname="twitter.svg">
  <defs
     id="defs4792" />
  <sodipodi:namedview
     id="base"
     pagecolor="#ffffff"
     bordercolor="#666666"
     borderopacity="1.0"
     inkscape:pageopacity="0.0"
     inkscape:pageshadow="2"
     inkscape:zoom="0.5625"
     inkscape:cx="1280"
     inkscape:cy="719.99999"
     inkscape:document-units="mm"
     inkscape:current-layer="layer1"
     showgrid="false"
     units="px"
     inkscape:window-width="1920"
     inkscape:window-height="1017"
     inkscape:window-x="-8"
     inkscape:window-y="-8"
     inkscape:window-maximized="1" />
  <metadata
     id="metadata4795">
    <rdf:RDF>
      <cc:Work
         rdf:about="">
        <dc:format>image/svg+xml</dc:format>
        <dc:type
           rdf:resource="http://purl.org/dc/dcmitype/StillImage" />
        <dc:title></dc:title>
      </cc:Work>
    </rdf:RDF>
  </metadata>
  <g
     inkscape:label="Layer 1"
     inkscape:groupmode="layer"
     id="layer1"
     transform="translate(0,84.000027)">
    <rect
       style="opacity:1;fill:#1da1f2;fill-opacity:1;fill-rule:nonzero;stroke:none;stroke-width:1.99183023;stroke-linejoin:round;stroke-miterlimit:4;stroke-dasharray:none;stroke-opacity:1"
       id="rect4800"
       width="675.34155"
       height="379.00818"
       x="0.99591511"
       y="-83.004112" />
    <g
       id="g5361"
       transform="matrix(0.34560764,0,0,0.34560764,99.52547,-132.29574)"
       style="fill:none;fill-opacity:1;stroke:#ffffff;stroke-width:5.00000095;stroke-linejoin:miter;stroke-miterlimit:4;stroke-dasharray:none;stroke-opacity:1">
      <path
         id="path5359"
         d="m 633.9,812.04 c 112.46,0 173.96,-93.168 173.96,-173.96 0,-2.6463 -0.0539,-5.2806 -0.1726,-7.903 11.938,-8.6302 22.314,-19.4 30.498,-31.66 -10.955,4.8694 -22.744,8.1474 -35.111,9.6255 12.623,-7.5693 22.314,-19.543 26.886,-33.817 -11.813,7.0031 -24.895,12.093 -38.824,14.841 -11.157,-11.884 -27.041,-19.317 -44.629,-19.317 -33.764,0 -61.144,27.381 -61.144,61.132 0,4.7978 0.5364,9.4646 1.5854,13.941 -50.815,-2.5569 -95.874,-26.886 -126.03,-63.88 -5.2508,9.0354 -8.2785,19.531 -8.2785,30.73 0,21.212 10.794,39.938 27.208,50.893 -10.031,-0.30992 -19.454,-3.0635 -27.69,-7.6468 -0.009,0.25652 -0.009,0.50661 -0.009,0.78077 0,29.61 21.075,54.332 49.051,59.934 -5.1376,1.4006 -10.543,2.1516 -16.122,2.1516 -3.9336,0 -7.766,-0.38716 -11.491,-1.1026 7.7838,24.293 30.355,41.971 57.115,42.465 -20.926,16.402 -47.287,26.171 -75.937,26.171 -4.929,0 -9.7983,-0.28036 -14.584,-0.84634 27.059,17.344 59.189,27.464 93.722,27.464"
         inkscape:connector-curvature="0"
         style="fill:none;fill-opacity:1;stroke:#ffffff;stroke-width:5.00000095;stroke-linejoin:miter;stroke-miterlimit:4;stroke-dasharray:none;stroke-opacity:1" />
    </g>
    <circle
       style="opacity:1;fill:#ffffff;fill-opacity:1;fill-rule:nonzero;stroke:none;stroke-width:0.66872704;stroke-linejoin:miter;stroke-miterlimit:4;stroke-dasharray:none;stroke-opacity:1"
       id="path5373"
       cx="239.41853"
       cy="169.05925"
       r="10.818516" />
    <circle
       style="opacity:1;fill:#ffffff;fill-opacity:1;fill-rule:nonzero;stroke:none;stroke-width:0.52335155;stroke-linejoin:miter;stroke-miterlimit:4;stroke-dasharray:none;stroke-opacity:1"
       id="path5373-3"
       cx="301.97781"
       cy="202.92592"
       r="8.4666643" />
    <circle
       style="opacity:1;fill:#ffffff;fill-opacity:1;fill-rule:nonzero;stroke:none;stroke-width:0.52335155;stroke-linejoin:miter;stroke-miterlimit:4;stroke-dasharray:none;stroke-opacity:1"
       id="path5373-5"
       cx="265.28888"
       cy="111.67406"
       r="8.4666643" />
    <circle
       style="opacity:1;fill:#d30077;fill-opacity:1;fill-rule:nonzero;stroke:none;stroke-width:1.20661628;stroke-linejoin:miter;stroke-miterlimit:4;stroke-dasharray:none;stroke-opacity:1"
       id="path5373-53"
       cx="421.68704"
       cy="122.72776"
       r="19.520367" />
    <circle
       style="opacity:1;fill:#11f481;fill-opacity:1;fill-rule:nonzero;stroke:none;stroke-width:1.27930403;stroke-linejoin:miter;stroke-miterlimit:4;stroke-dasharray:none;stroke-opacity:1"
       id="path5373-37"
       cx="451.08521"
       cy="43.470348"
       r="20.696293" />
    <circle
       style="opacity:1;fill:#ffffff;fill-opacity:1;fill-rule:nonzero;stroke:none;stroke-width:0.52335155;stroke-linejoin:miter;stroke-miterlimit:4;stroke-dasharray:none;stroke-opacity:1"
       id="path5373-4"
       cx="392.28891"
       cy="166.7074"
       r="8.4666643" />
    <circle
       style="opacity:1;fill:#ffffff;fill-opacity:1;fill-rule:nonzero;stroke:none;stroke-width:0.7559523;stroke-linejoin:miter;stroke-miterlimit:4;stroke-dasharray:none;stroke-opacity:1"
       id="path5373-8"
       cx="420.04077"
       cy="-2.1555741"
       r="12.229628" />
    <circle
       style="opacity:1;fill:#ffffff;fill-opacity:1;fill-rule:nonzero;stroke:none;stroke-width:0.52335155;stroke-linejoin:miter;stroke-miterlimit:4;stroke-dasharray:none;stroke-opacity:1"
       id="path5373-6"
       cx="470.37039"
       cy="106.49998"
       r="8.4666643" />
    <circle
       style="opacity:1;fill:#ff9411;fill-opacity:1;fill-rule:nonzero;stroke:none;stroke-width:1.32292593;stroke-linejoin:miter;stroke-miterlimit:4;stroke-dasharray:none;stroke-opacity:1"
       id="path5373-2"
       cx="224.132"
       cy="72.39798"
       r="21.402" />
    <circle
       style="opacity:1;fill:#ff4a11;fill-opacity:1;fill-rule:nonzero;stroke:none;stroke-width:1.7590431;stroke-linejoin:miter;stroke-miterlimit:4;stroke-dasharray:none;stroke-opacity:1"
       id="path5373-32"
       cx="345.95743"
       cy="-8.9759445"
       r="28.457405" />
    <circle
       style="opacity:1;fill:#ffffff;fill-opacity:1;fill-rule:nonzero;stroke:none;stroke-width:0.52335155;stroke-linejoin:miter;stroke-miterlimit:4;stroke-dasharray:none;stroke-opacity:1"
       id="path5373-1"
       cx="385.23331"
       cy="36.88517"
       r="8.4666643" />
    <circle
       style="opacity:1;fill:#ffffff;fill-opacity:1;fill-rule:nonzero;stroke:none;stroke-width:0.53788912;stroke-linejoin:miter;stroke-miterlimit:4;stroke-dasharray:none;stroke-opacity:1"
       id="path5373-41"
       cx="273.52032"
       cy="15.012945"
       r="8.7018499" />
    <circle
       style="opacity:1;fill:#ffffff;fill-opacity:1;fill-rule:nonzero;stroke:none;stroke-width:0.9158653;stroke-linejoin:miter;stroke-miterlimit:4;stroke-dasharray:none;stroke-opacity:1"
       id="path5373-43"
       cx="353.9537"
       cy="240.79074"
       r="14.816665" />
    <circle
       style="opacity:1;fill:#ffffff;fill-opacity:1;fill-rule:nonzero;stroke:none;stroke-width:0.30528834;stroke-linejoin:miter;stroke-miterlimit:4;stroke-dasharray:none;stroke-opacity:1"
       id="path5373-4-6"
       cx="405.6944"
       cy="213.97963"
       r="4.9388866" />
    <circle
       style="opacity:1;fill:#ffffff;fill-opacity:1;fill-rule:nonzero;stroke:none;stroke-width:0.52335155;stroke-linejoin:miter;stroke-miterlimit:4;stroke-dasharray:none;stroke-opacity:1"
       id="path5373-4-4"
       cx="179.21111"
       cy="119.19998"
       r="8.4666643" />
    <path
       id="path5574"
       d="m 213.78386,72.39798 v 8.278519 h 8.27852 V 72.39798 h -4.13926 c 0,0 0,-4.13926 4.13926,-4.13926 v -4.139259 c 0,0 -8.27852,0 -8.27852,8.278519 z m 20.69629,-4.13926 v -4.139259 c 0,0 -8.27851,0 -8.27851,8.278519 v 8.278519 h 8.27851 V 72.39798 h -4.13925 c 0,0 0,-4.13926 4.13925,-4.13926 z"
       inkscape:connector-curvature="0"
       style="fill:#ffffff;fill-opacity:1;stroke-width:0.03233796" />
    <path
       id="path5594"
       d="m 357.11088,-3.9153536 c -1.65702,0 -3.14739,0.6970979 -4.20559,1.8096678 l -12.36446,-6.0536069 c 0.0424,-0.2844163 0.0719,-0.5723183 0.0719,-0.8685855 0,-0.2885976 -0.0279,-0.5702264 -0.0682,-0.846973 l 12.3463,-5.9873828 c 1.05889,1.121633 2.55627,1.825702 4.22024,1.825702 3.20805,0 5.80892,-2.600874 5.80892,-5.808925 0,-3.208745 -2.60087,-5.808924 -5.80892,-5.808924 -3.20804,0 -5.80891,2.600179 -5.80891,5.808924 0,0.2886 0.0279,0.569531 0.0682,0.846976 l -12.34633,5.987381 c -1.05889,-1.12163 -2.55556,-1.8257 -4.22024,-1.8257 -3.20873,0 -5.80892,2.600875 -5.80892,5.8089218 0,3.2087481 2.60019,5.8089243 5.80892,5.8089243 1.65701,0 3.14741,-0.6970979 4.20559,-1.8096675 l 12.36446,6.0536068 c -0.0424,0.2837181 -0.0719,0.5723183 -0.0719,0.8685855 0,3.2087453 2.60087,5.8089213 5.80891,5.8089213 3.20805,0 5.80895,-2.600176 5.80895,-5.8089213 0,-3.208748 -2.6009,-5.8089245 -5.80895,-5.8089245 z"
       inkscape:connector-curvature="0"
       style="fill:#ffffff;fill-opacity:1;stroke-width:0.69709873" />
    <g
       transform="matrix(0.04036495,0,0,0.04036495,409.57714,92.359158)"
       id="layer1-7"
       inkscape:label="レイヤー 1"
       style="fill:#ffffff;fill-opacity:1">
      <g
         id="g4087"
         style="display:inline;fill:#ffffff;fill-opacity:1"
         transform="matrix(1.0871732,0,0,1.0871732,-155.7732,195.33037)">
        <path
           style="fill:#ffffff;fill-opacity:1;fill-rule:nonzero;stroke:none"
           d="m 301.42856,312.42213 372.68414,-76 v 103.92858 l -372.68414,76 z"
           id="rect4002"
           inkscape:connector-curvature="0"
           sodipodi:nodetypes="ccccc" />
        <rect
           style="fill:#ffffff;fill-opacity:1;fill-rule:nonzero;stroke:none"
           id="rect3964"
           width="60"
           height="388.5"
           x="301.42856"
           y="312.34177" />
        <ellipse
           style="fill:#ffffff;fill-opacity:1;fill-rule:nonzero;stroke:none"
           id="path4005"
           transform="matrix(0.77274066,-0.20705524,0.24886447,0.92877483,273.33148,240.33751)"
           cx="-165"
           cy="470.36218"
           rx="125"
           ry="78" />
        <rect
           style="display:inline;fill:#ffffff;fill-opacity:1;fill-rule:nonzero;stroke:none"
           id="rect3964-3"
           width="60"
           height="388.5"
           x="614.11267"
           y="248.87701" />
        <ellipse
           style="display:inline;fill:#ffffff;fill-opacity:1;fill-rule:nonzero;stroke:none"
           id="path4005-7"
           transform="matrix(0.77274066,-0.20705524,0.24886447,0.92877483,586.01559,176.87275)"
           cx="-165"
           cy="470.36218"
           rx="125"
           ry="78" />
      </g>
    </g>
    <g
       id="XMLID_1_"
       transform="matrix(0.40864776,0,0,0.40864776,431.40882,23.814391)"
       style="fill:#ffffff;fill-opacity:1">
      <path
         d="M 76.4,19.6 H 39.9 c -2.2,0 -4.1,1.8 -4.1,4.1 v 8.1 H 19.6 c -2.2,0 -4.1,1.8 -4.1,4.1 v 24.4 c 0,2.2 1.8,4.1 4.1,4.1 h 4.1 V 76.6 L 35.9,64.4 h 16.3 c 2.2,0 4.1,-1.8 4.1,-4.1 v -8.1 h 4.1 L 72.6,64.4 V 52.1 h 4.1 c 2.2,0 4.1,-1.8 4.1,-4.1 V 23.6 c -0.3,-2.2 -2.1,-4 -4.4,-4 z M 52.1,60.2 H 33.8 l -6.1,6.1 V 60.2 H 19.6 V 35.8 H 35.9 V 48 c 0,2.2 1.8,4.1 4.1,4.1 h 12.2 v 8.1 z M 76.4,48 h -8.1 v 6.1 L 62.2,48 H 39.9 V 23.6 H 76.5 V 48 Z"
         class="st0"
         id="XMLID_6_"
         inkscape:connector-curvature="0"
         style="fill:#ffffff;fill-opacity:1" />
    </g>
  </g>
  <style
     id="style5644"
     type="text/css">
	.st0{fill:#333333;}
</style>
</svg>
